HIERARCHY
ROOT Hips
{
    OFFSET 0.000000 0.000000 0.000000
    CHANNELS 6 Xposition Yposition Zposition Zrotation Xrotation Yrotation
        JOINT Chest
        {
            OFFSET -0.000000 31.804140 -0.000000
            CHANNELS 3 Zrotation Xrotation Yrotation
            JOINT Neck
            {
                OFFSET -0.000000 23.903318 0.000000
                CHANNELS 3 Zrotation Xrotation Yrotation
                JOINT Head
                {
                    OFFSET -0.000000 10.511110 0.000000
                    CHANNELS 3 Zrotation Xrotation Yrotation
                    End Site
                    {
                        OFFSET -0.000000 16.244448 0.000000
                    }
                }
            }
            JOINT LeftCollar
            {
                OFFSET -0.000000 23.903318 0.000000
                CHANNELS 3 Zrotation Xrotation Yrotation
                JOINT LeftShoulder
                {
                    OFFSET 20.500000 -0.000000 0.000000
                    CHANNELS 3 Zrotation Xrotation Yrotation
                    JOINT LeftElbow
                    {
                        OFFSET 20.922438 0.000000 0.000000
                        CHANNELS 3 Zrotation Xrotation Yrotation
                        JOINT LeftWrist
                        {
                            OFFSET 26.373112 0.000000 0.000000
                            CHANNELS 3 Zrotation Xrotation Yrotation
                            End Site
                            {
                                OFFSET 0.000000 -14.333333 0.000000
                            }
                        }
                    }
                }
            }
            JOINT RightCollar
            {
                OFFSET -0.000000 23.903318 0.000000
                CHANNELS 3 Zrotation Xrotation Yrotation
                JOINT RightShoulder
                {
                    OFFSET -20.500000 0.000000 0.000000
                    CHANNELS 3 Zrotation Xrotation Yrotation
                    JOINT RightElbow
                    {
                        OFFSET -20.922438 0.000000 0.000000
                        CHANNELS 3 Zrotation Xrotation Yrotation
                        JOINT RightWrist
                        {
                            OFFSET -26.373112 0.000000 0.000000
                            CHANNELS 3 Zrotation Xrotation Yrotation
                            End Site
                            {
                                OFFSET -0.000000 -14.333333 0.000000
                            }
                        }
                    }
                }
            }
        }
    JOINT LeftHip
    {
        OFFSET 11.466667 0.000000 0.000000
        CHANNELS 3 Zrotation Xrotation Yrotation
        JOINT LeftKnee
        {
            OFFSET -0.000000 -37.458855 0.000000
            CHANNELS 3 Zrotation Xrotation Yrotation
            JOINT LeftAnkle
            {
                OFFSET -0.000000 -39.235966 0.000000
                CHANNELS 3 Zrotation Xrotation Yrotation
                End Site
                {
                    OFFSET -0.000000 -4.777778 16.244448
                }
            }
        }
    }
    JOINT RightHip
    {
        OFFSET -11.466667 0.000000 0.000000
        CHANNELS 3 Zrotation Xrotation Yrotation
        JOINT RightKnee
        {
            OFFSET -0.000000 -37.458855 0.000000
            CHANNELS 3 Zrotation Xrotation Yrotation
            JOINT RightAnkle
            {
                OFFSET -0.000000 -39.235966 0.000000
                CHANNELS 3 Zrotation Xrotation Yrotation
                End Site
                {
                    OFFSET -0.000000 -4.777778 16.244448
                }
            }
        }
    }
}
MOTION
Frames:    13
Frame Time:    0.010000
-66.853508    83.225525    -44.291355    -3.848960    -13.032729    13.406315    6.068944    29.427971    -3.028246    -17.201612    13.619493    -10.883483    25.158298    -13.611461    -9.906547    -9.694670    -0.159652    1.940908    -58.452183    -0.157194    6.681046    -25.566185    19.430536    -73.231659    105.536102    -33.632118    -38.802387    17.855843    0.917335    5.434112    39.678238    24.852850    -0.804473    -19.248497    -12.598615    66.078499    -108.752045    -0.423191    -5.041334    22.198179    -0.094285    0.108058    -25.729221    39.152237    42.019360    -6.193336    -11.665085    12.823532    -10.240826    -10.468218    -5.846840    1.912430    10.729611    -24.445034    15.902192    5.206983    -12.121932    
-66.528572    83.924225    -45.147930    -3.961441    -13.073442    13.149683    6.274251    29.095091    -3.026208    -17.369308    13.776247    -10.901566    25.258333    -13.702881    -9.941314    -9.461757    -0.190576    2.321809    -58.693192    0.187134    7.618877    -26.066610    20.154877    -74.385521    105.011711    -32.712952    -38.348652    17.917473    0.834067    4.876128    39.523136    26.415632    -0.843912    -19.576553    -13.007232    66.413124    -108.971359    -0.347669    -5.666187    21.239355    0.313194    0.103870    -23.918802    37.559086    40.528717    -5.700159    -10.276471    13.310171    -10.362382    -10.304227    -7.746633    2.104650    12.952534    -24.259493    15.760204    5.913906    -11.215526    
-66.243813    84.679710    -46.002617    -4.060732    -13.084971    13.012781    6.485050    28.794594    -3.017564    -17.413187    13.944658    -10.996044    25.280506    -13.845887    -10.039667    -9.223407    -0.219919    2.606884    -58.961788    0.472162    8.438348    -26.497532    20.803661    -75.341095    104.700279    -31.888632    -37.885605    17.966320    0.747023    4.245092    39.453083    28.013758    -0.837295    -20.027359    -13.444127    66.567017    -109.230721    -0.318517    -6.348255    20.277506    0.682164    0.217754    -21.967010    35.916763    38.847736    -5.283896    -8.704662    13.805446    -10.446682    -10.319664    -9.816601    2.080410    15.799191    -23.345255    15.669177    6.737674    -10.139058    
-66.000710    85.489693    -46.859497    -4.145425    -13.037903    12.986173    6.728016    28.510746    -2.993595    -17.446302    14.021357    -11.106018    25.254665    -13.958611    -10.146027    -9.017179    -0.244235    2.938885    -59.262817    0.652528    9.078365    -26.917830    21.407486    -76.038368    104.610909    -31.211470    -37.469948    17.944206    0.654621    3.678515    39.479309    29.642326    -0.794689    -20.565790    -13.877390    66.563812    -109.607422    -0.299227    -7.073188    19.336950    0.998905    0.421071    -19.967796    34.202175    37.032661    -4.954209    -6.960119    14.278671    -10.468138    -10.478632    -11.844278    1.805133    19.052719    -21.840185    15.677472    7.636559    -8.967839    
-65.799652    86.345512    -47.721634    -4.210678    -12.907568    13.064527    6.953783    28.210869    -2.922950    -17.254435    14.136192    -11.333849    25.079809    -14.119953    -10.363883    -8.815130    -0.261602    3.094437    -59.563808    0.723326    9.582870    -27.383896    21.985468    -76.456657    104.717537    -30.715851    -37.169270    17.874800    0.557618    3.015953    39.623116    31.199062    -0.720634    -21.135771    -14.271321    66.445473    -110.148750    -0.266203    -7.805888    18.442780    1.248186    0.675945    -18.011354    32.405148    35.125774    -4.719401    -5.055434    14.706611    -10.407826    -10.739635    -13.622651    1.314771    22.493883    -19.950830    15.803624    8.554527    -7.754823    
-65.639183    87.232788    -48.591160    -4.248242    -12.676042    13.246160    7.134471    27.881428    -2.797392    -16.941278    14.211882    -11.626163    24.796499    -14.268609    -10.636863    -8.645363    -0.212654    3.193197    -59.852482    0.647245    9.875391    -27.970449    22.578482    -76.515686    105.019928    -30.439253    -37.017426    17.727884    0.457816    2.372193    39.897011    32.641220    -0.648795    -21.668943    -14.579543    66.271240    -110.867111    -0.212757    -8.493554    17.615469    1.416101    0.937372    -16.174290    30.529558    33.158642    -4.592330    -3.009605    15.072463    -10.257648    -11.060361    -14.983633    0.713740    25.933859    -17.917400    16.048002    9.420354    -6.545677    
-65.516090    88.132492    -49.468899    -4.248312    -12.334677    13.531508    7.272845    27.497448    -2.623449    -16.544867    14.225342    -11.961575    24.436537    -14.367582    -10.951780    -8.507655    -0.232891    3.277263    -60.124363    0.537415    10.057900    -28.594885    23.119333    -76.505577    105.273674    -30.319653    -37.154694    17.499447    0.358790    1.796238    40.311543    33.895596    -0.612094    -22.086081    -14.760700    66.114136    -111.755585    -0.143592    -9.073621    16.869328    1.493748    1.160065    -14.511532    28.592592    31.156292    -4.596249    -0.852335    15.359990    -10.020473    -11.399622    -15.820911    0.151128    29.231527    -15.979033    16.402885    10.157279    -5.390811    
-65.426414    89.022659    -50.353836    -4.202234    -11.886257    13.921594    7.346705    27.032681    -2.409377    -16.007067    14.254695    -12.367455    23.995497    -14.462095    -11.335697    -8.394135    -0.226413    3.255288    -60.337791    0.346670    10.120262    -29.364525    23.706934    -76.169548    105.698456    -30.420052    -37.394875    17.221828    0.267474    1.240351    40.875923    34.856373    -0.651405    -22.302731    -14.777931    66.052368    -112.786583    -0.079950    -9.476010    16.213747    1.479769    1.308165    -13.051195    26.623568    29.133022    -4.763036    1.374725    15.551428    -9.706684    -11.716596    -16.098442    -0.213807    32.291691    -14.344949    16.855846    10.699446    -4.346844    
-65.366219    89.880104    -51.243179    -4.104587    -11.344634    14.416094    7.337404    26.479214    -2.174841    -15.374470    14.307451    -12.821027    23.516029    -14.550865    -11.762642    -8.303200    -0.249347    3.146908    -60.485630    0.151446    10.128918    -30.208534    24.273540    -75.763382    106.015511    -30.656672    -37.868687    16.912758    0.182996    0.738449    41.585320    35.462498    -0.804198    -22.262844    -14.606268    66.151520    -113.896942    -0.062312    -9.647390    15.654596    1.380376    1.363011    -11.796318    24.661442    27.085461    -5.125162    3.618501    15.632179    -9.329894    -11.972342    -15.847733    -0.247578    35.052486    -13.172350    17.394363    11.008311    -3.468612    
-65.331444    90.682312    -52.133095    -3.953387    -10.730444    15.010961    7.242154    25.837633    -1.944493    -14.703178    14.385286    -13.296139    23.048752    -14.625070    -12.209036    -8.241071    -0.201727    2.975084    -60.550083    -0.086098    10.039569    -31.176994    24.866625    -75.144943    106.335136    -31.030998    -38.419411    16.589901    0.108681    0.321591    42.418926    35.666618    -1.092229    -21.869381    -14.239830    66.472794    -115.077263    -0.118330    -9.534544    15.192143    1.206465    1.326191    -10.730247    22.752144    24.992701    -5.708275    5.814342    15.595928    -8.905159    -12.134887    -15.157310    0.128919    37.472214    -12.547555    18.007833    11.079670    -2.799491    
-65.317680    91.408928    -53.019417    -3.749514    -10.066628    15.696221    7.062580    25.115675    -1.740110    -14.030424    14.503341    -13.777131    22.632574    -14.691371    -12.659681    -8.200291    -0.165385    2.738810    -60.536476    -0.274757    9.941275    -32.142567    25.405884    -74.629997    106.378136    -31.419163    -39.144924    16.273230    0.048453    -0.002910    43.340408    35.443165    -1.516637    -21.122292    -13.655762    67.030731    -116.193817    -0.328372    -9.108706    14.820081    0.971254    1.217758    -9.825988    20.945848    22.824057    -6.520790    7.886195    15.450698    -8.447133    -12.183493    -14.156500    0.922409    39.521252    -12.474862    18.687117    10.941834    -2.362152    
-65.320076    92.042831    -53.898453    -3.496180    -9.374333    16.455118    6.804139    24.329966    -1.577407    -13.399286    14.662935    -14.245616    22.300348    -14.751962    -13.096294    -8.177541    -0.184157    2.448093    -60.445530    -0.373085    9.895261    -33.050442    25.903339    -74.244247    106.219131    -31.770426    -39.882607    15.974724    0.004812    -0.225057    44.303944    34.791107    -2.062517    -20.010128    -12.853837    67.822548    -117.211342    -0.709990    -8.379002    14.525735    0.687979    1.065197    -9.057013    19.292912    20.559000    -7.544308    9.749469    15.223567    -7.967863    -12.111181    -12.996537    2.062246    41.181023    -12.877048    19.421144    10.645764    -2.153649    
-65.333496    92.570808    -54.767532    -3.198345    -8.670796    17.264622    6.475480    23.503355    -1.463794    -12.845579    14.854569    -14.686313    22.072439    -14.806211    -13.504410    -8.174971    -0.144459    2.115345    -60.282459    -0.437106    9.821544    -33.950504    26.397827    -73.816795    106.025101    -32.087685    -40.456184    15.699272    -0.028090    -0.341615    45.263088    33.739143    -2.704384    -18.554646    -11.843500    68.819374    -118.059502    -1.289829    -7.352072    14.291690    0.369664    0.890048    -8.404138    17.839138    18.207088    -8.730479    11.315250    14.961564    -7.475309    -11.923133    -11.829332    3.413293    42.446072    -13.612392    20.194057    10.252778    -2.147239    
